<svg xmlns="http://www.w3.org/2000/svg" viewBox="0 0 174.87 74.55"><defs><style>.cls-1{fill:#3494bb;}.cls-2{fill:#fff;}.cls-3{fill:none;stroke:#fff;stroke-linecap:round;stroke-linejoin:round;stroke-width:5px;}.cls-4{font-size:28.61px;fill:#504444;font-family:KozGoPr6N-Medium-83pv-RKSJ-H, Kozuka Gothic Pr6N;letter-spacing:0.1em;}</style></defs><g id="レイヤー_2" data-name="レイヤー 2"><g id="レイヤー_1-2" data-name="レイヤー 1"><circle class="cls-1" cx="37.27" cy="37.27" r="37.27" transform="translate(-1.4 1.46) rotate(-2.2)"/><path class="cls-2" d="M70.84,39.24c-.06.87-.13,1.73-.25,2.59"/><path class="cls-2" d="M70.5,39.22c-.06.86-.13,1.71-.25,2.56a.34.34,0,0,0,.3.38.34.34,0,0,0,.38-.29c.12-.86.19-1.73.25-2.61a.33.33,0,0,0-.32-.36.37.37,0,0,0-.36.32"/><path class="cls-2" d="M70.21,44.11c-.2.85-.38,1.69-.64,2.52"/><path class="cls-2" d="M69.87,44c-.19.84-.37,1.68-.62,2.5a.35.35,0,0,0,.23.42.34.34,0,0,0,.42-.23c.26-.84.44-1.7.64-2.55a.34.34,0,0,0-.27-.4.33.33,0,0,0-.4.26"/><path class="cls-2" d="M68.86,48.83c-.32.81-.62,1.62-1,2.4"/><path class="cls-2" d="M68.54,48.72c-.31.79-.61,1.6-1,2.37a.34.34,0,0,0,.17.45.33.33,0,0,0,.45-.17c.37-.79.68-1.61,1-2.42a.35.35,0,0,0-.21-.44.33.33,0,0,0-.43.21"/><path class="cls-2" d="M66.84,53.31c-.43.75-.85,1.51-1.34,2.23"/><path class="cls-2" d="M66.54,53.15c-.43.74-.85,1.49-1.32,2.2a.34.34,0,0,0,.1.47.33.33,0,0,0,.47-.1c.49-.73.91-1.49,1.35-2.25A.34.34,0,0,0,67,53a.32.32,0,0,0-.45.14"/><path class="cls-2" d="M64.18,57.44c-.53.68-1.06,1.37-1.64,2"/><path class="cls-2" d="M63.91,57.23c-.53.68-1,1.36-1.63,2a.36.36,0,0,0,0,.49.34.34,0,0,0,.48,0c.58-.65,1.12-1.34,1.66-2a.35.35,0,0,0-.08-.48.34.34,0,0,0-.47.07"/><path class="cls-2" d="M61,61.14c-.63.6-1.25,1.2-1.92,1.75"/><path class="cls-2" d="M60.72,60.9c-.62.59-1.24,1.18-1.9,1.73a.35.35,0,0,0,0,.48.33.33,0,0,0,.48,0c.67-.56,1.31-1.16,1.94-1.77a.34.34,0,0,0-.48-.48"/><path class="cls-2" d="M57.23,64.33c-.7.51-1.41,1-2.15,1.46"/><path class="cls-2" d="M57,64.06c-.7.5-1.4,1-2.13,1.44a.36.36,0,0,0-.11.48.34.34,0,0,0,.47.1c.75-.46,1.46-1,2.17-1.47a.33.33,0,0,0,.07-.48.34.34,0,0,0-.47-.07"/><path class="cls-2" d="M53.08,67c-.77.41-1.55.79-2.34,1.13"/><path class="cls-2" d="M52.92,66.65c-.76.4-1.53.78-2.32,1.12a.35.35,0,0,0-.17.45.33.33,0,0,0,.45.18c.8-.35,1.58-.74,2.36-1.15a.32.32,0,0,0,.14-.45.35.35,0,0,0-.46-.15"/><path class="cls-2" d="M48.59,68.94c-.82.29-1.64.55-2.48.78"/><path class="cls-2" d="M48.47,68.62c-.81.28-1.62.55-2.45.77a.35.35,0,0,0-.24.42.33.33,0,0,0,.42.23c.84-.22,1.68-.49,2.5-.78a.33.33,0,0,0,.21-.43.35.35,0,0,0-.44-.21"/><path class="cls-2" d="M43.86,70.25c-.86.16-1.71.31-2.57.4"/><path class="cls-2" d="M43.79,69.91c-.84.16-1.69.31-2.54.4a.35.35,0,0,0-.3.38.34.34,0,0,0,.38.3c.87-.1,1.73-.25,2.59-.41a.33.33,0,0,0,.27-.4.35.35,0,0,0-.4-.27"/><path class="cls-2" d="M39,70.85c-.86,0-1.73.06-2.59,0"/><path class="cls-2" d="M39,70.51c-.86,0-1.72.06-2.58,0a.34.34,0,0,0-.34.34.33.33,0,0,0,.33.34c.87.05,1.75,0,2.62,0a.34.34,0,0,0,0-.68"/><path class="cls-2" d="M34.07,70.74c-.86-.1-1.72-.18-2.57-.35"/><path class="cls-2" d="M34.11,70.4c-.85-.1-1.71-.18-2.55-.34a.33.33,0,0,0-.39.27.34.34,0,0,0,.27.4c.86.17,1.73.25,2.6.35a.35.35,0,0,0,.37-.31.33.33,0,0,0-.3-.37"/><path class="cls-2" d="M29.23,69.92c-.84-.21-1.67-.43-2.49-.72"/><path class="cls-2" d="M29.32,69.59c-.84-.21-1.67-.43-2.48-.71a.34.34,0,0,0-.42.21.35.35,0,0,0,.21.44c.83.28,1.67.51,2.52.72a.34.34,0,0,0,.17-.66"/><path class="cls-2" d="M24.57,68.4c-.8-.33-1.6-.68-2.37-1.07"/><path class="cls-2" d="M24.69,68.09c-.79-.33-1.57-.67-2.34-1.07a.35.35,0,0,0-.45.15.34.34,0,0,0,.15.46c.78.4,1.58.76,2.39,1.09a.34.34,0,0,0,.44-.19.33.33,0,0,0-.19-.44"/><path class="cls-2" d="M20.17,66.22c-.74-.45-1.48-.9-2.18-1.41"/><path class="cls-2" d="M20.34,65.93c-.73-.45-1.46-.9-2.16-1.4a.34.34,0,0,0-.47.08.35.35,0,0,0,.08.48c.71.51,1.46,1,2.21,1.42a.34.34,0,1,0,.34-.58"/><path class="cls-2" d="M16.14,63.42c-.67-.56-1.34-1.11-2-1.72"/><path class="cls-2" d="M16.35,63.15c-.66-.55-1.32-1.09-1.93-1.69A.34.34,0,1,0,14,62c.62.62,1.3,1.17,2,1.73a.34.34,0,0,0,.48,0,.34.34,0,0,0,0-.48"/><path class="cls-2" d="M12.55,60.06c-.57-.64-1.15-1.29-1.68-2"/><path class="cls-2" d="M12.81,59.83c-.58-.64-1.15-1.28-1.67-2a.35.35,0,0,0-.48,0,.33.33,0,0,0-.06.47c.53.7,1.12,1.35,1.7,2a.34.34,0,0,0,.51-.46"/><path class="cls-2" d="M9.5,56.22c-.48-.72-1-1.44-1.38-2.2"/><path class="cls-2" d="M9.78,56c-.47-.72-.95-1.43-1.37-2.18A.34.34,0,0,0,8,53.72a.35.35,0,0,0-.13.47c.43.76.91,1.49,1.39,2.22a.35.35,0,0,0,.48.09A.34.34,0,0,0,9.78,56"/><path class="cls-2" d="M7,52c-.37-.79-.74-1.57-1-2.38"/><path class="cls-2" d="M7.33,51.83c-.36-.78-.73-1.56-1-2.36a.34.34,0,0,0-.44-.19.34.34,0,0,0-.19.44c.31.82.68,1.61,1,2.4a.35.35,0,0,0,.46.16.33.33,0,0,0,.15-.45"/><path class="cls-2" d="M5.21,47.42c-.25-.83-.5-1.66-.68-2.51"/><path class="cls-2" d="M5.53,47.31c-.24-.82-.49-1.64-.67-2.48a.34.34,0,0,0-.41-.25A.33.33,0,0,0,4.2,45c.18.85.44,1.69.68,2.53a.35.35,0,0,0,.44.22.33.33,0,0,0,.21-.43"/><path class="cls-2" d="M4.08,42.64c-.12-.86-.26-1.72-.31-2.58"/><path class="cls-2" d="M4.41,42.58c-.11-.84-.25-1.69-.3-2.55a.34.34,0,1,0-.68.06c0,.87.19,1.74.31,2.6a.34.34,0,0,0,.4.28.33.33,0,0,0,.27-.39"/><path class="cls-2" d="M3.66,37.75c0-.87,0-1.74.06-2.6"/><path class="cls-2" d="M4,37.74c0-.85,0-1.71.06-2.57a.35.35,0,0,0-.32-.36.34.34,0,0,0-.36.32c0,.87-.08,1.75-.06,2.62a.35.35,0,0,0,.35.34A.35.35,0,0,0,4,37.74"/><path class="cls-2" d="M3.94,32.85c.1-.87.27-1.71.44-2.56"/><path class="cls-2" d="M4.28,32.89c.09-.85.27-1.69.43-2.53A.34.34,0,0,0,4,30.21c-.16.86-.34,1.72-.43,2.59a.33.33,0,0,0,.29.38.34.34,0,0,0,.38-.29"/><path class="cls-2" d="M4.94,28c.22-.84.52-1.65.8-2.47"/><path class="cls-2" d="M5.27,28.13c.21-.83.51-1.63.79-2.44a.34.34,0,0,0-.2-.44.35.35,0,0,0-.44.2c-.29.83-.59,1.65-.81,2.5a.34.34,0,0,0,.24.42.35.35,0,0,0,.42-.24"/><path class="cls-2" d="M6.63,23.43c.34-.8.75-1.56,1.15-2.33"/><path class="cls-2" d="M6.94,23.57c.34-.79.74-1.54,1.14-2.3A.34.34,0,0,0,8,20.81a.36.36,0,0,0-.47.13c-.4.77-.82,1.55-1.16,2.35a.33.33,0,0,0,.17.45.35.35,0,0,0,.45-.17"/><path class="cls-2" d="M9,19.12c.46-.74,1-1.44,1.48-2.14"/><path class="cls-2" d="M9.26,19.3c.45-.73,1-1.42,1.46-2.11a.33.33,0,0,0-.06-.47.34.34,0,0,0-.48.06c-.51.7-1,1.41-1.5,2.15a.34.34,0,0,0,.58.37"/><path class="cls-2" d="M11.92,15.19c.55-.66,1.17-1.28,1.77-1.89"/><path class="cls-2" d="M12.17,15.42c.55-.66,1.16-1.27,1.76-1.88a.34.34,0,0,0,0-.48.34.34,0,0,0-.48,0c-.62.63-1.24,1.25-1.8,1.92a.34.34,0,0,0,0,.48.33.33,0,0,0,.47,0"/><path class="cls-2" d="M15.4,11.73c.65-.57,1.34-1.09,2-1.61"/><path class="cls-2" d="M15.62,12c.64-.57,1.33-1.08,2-1.6a.33.33,0,0,0,.07-.47.35.35,0,0,0-.48-.08c-.7.53-1.4,1.05-2.05,1.63a.35.35,0,0,0,0,.49.33.33,0,0,0,.47,0"/><path class="cls-2" d="M19.35,8.82c.73-.47,1.49-.9,2.25-1.3"/><path class="cls-2" d="M19.53,9.11c.72-.47,1.47-.89,2.23-1.29a.34.34,0,0,0,.14-.46.35.35,0,0,0-.46-.15c-.77.42-1.54.84-2.27,1.32a.34.34,0,0,0,.36.58"/><path class="cls-2" d="M23.68,6.51c.79-.36,1.6-.67,2.42-1"/><path class="cls-2" d="M23.82,6.82c.78-.36,1.58-.66,2.39-1A.34.34,0,1,0,26,5.23c-.82.29-1.64.6-2.44,1a.34.34,0,0,0,.28.62"/><path class="cls-2" d="M28.31,4.86c.83-.25,1.68-.43,2.52-.6"/><path class="cls-2" d="M28.4,5.19c.82-.25,1.66-.42,2.5-.59a.34.34,0,1,0-.13-.67c-.86.17-1.72.35-2.56.6A.34.34,0,0,0,28,5a.34.34,0,0,0,.42.24"/><path class="cls-2" d="M33.12,3.9c.86-.12,1.72-.16,2.59-.22"/><path class="cls-2" d="M33.16,4.24c.85-.12,1.71-.16,2.56-.22a.34.34,0,1,0,0-.68c-.87.06-1.75.1-2.61.22a.34.34,0,1,0,.08.68"/><path class="cls-2" d="M38,3.66c.87,0,1.73.08,2.6.14"/><path class="cls-2" d="M38,4c.85,0,1.71.08,2.56.14a.33.33,0,0,0,.37-.3.35.35,0,0,0-.3-.38c-.87-.06-1.74-.14-2.62-.14a.34.34,0,0,0-.35.33A.35.35,0,0,0,38,4"/><path class="cls-2" d="M42.91,4.12c.86.13,1.7.32,2.54.52"/><path class="cls-2" d="M42.85,4.45c.85.14,1.69.32,2.52.52a.34.34,0,0,0,.41-.24.34.34,0,0,0-.24-.42c-.85-.2-1.71-.39-2.57-.53a.33.33,0,0,0-.39.28.34.34,0,0,0,.27.39"/><path class="cls-2" d="M47.68,5.29c.82.26,1.63.56,2.44.89"/><path class="cls-2" d="M47.57,5.61c.82.26,1.62.56,2.42.89a.35.35,0,0,0,.44-.19.33.33,0,0,0-.18-.44c-.81-.33-1.63-.64-2.47-.91a.33.33,0,0,0-.42.22.34.34,0,0,0,.21.43"/><path class="cls-2" d="M52.22,7.14c.78.38,1.54.8,2.28,1.25"/><path class="cls-2" d="M52.07,7.45c.77.38,1.52.79,2.26,1.23a.34.34,0,0,0,.35-.59c-.76-.44-1.52-.87-2.31-1.25a.33.33,0,0,0-.45.15.36.36,0,0,0,.15.46"/><path class="cls-2" d="M56.45,9.64c.71.49,1.4,1,2.07,1.56"/><path class="cls-2" d="M56.25,9.92c.71.49,1.39,1,2.06,1.55a.34.34,0,0,0,.47-.05.33.33,0,0,0,0-.48c-.68-.55-1.38-1.08-2.1-1.58a.33.33,0,0,0-.47.09.34.34,0,0,0,.08.47"/><path class="cls-2" d="M60.26,12.73c.64.59,1.24,1.22,1.83,1.85"/><path class="cls-2" d="M60,13c.63.58,1.22,1.2,1.81,1.83a.34.34,0,0,0,.48,0,.33.33,0,0,0,0-.48c-.6-.64-1.2-1.27-1.84-1.87a.34.34,0,0,0-.48,0A.34.34,0,0,0,60,13"/><path class="cls-2" d="M63.59,16.34c.55.67,1,1.38,1.55,2.09"/><path class="cls-2" d="M63.32,16.55c.55.67,1,1.37,1.53,2.07a.34.34,0,0,0,.57-.38c-.51-.72-1-1.43-1.56-2.11a.35.35,0,0,0-.48-.06.36.36,0,0,0-.06.48"/><path class="cls-2" d="M66.36,20.39c.45.75.83,1.52,1.23,2.29"/><path class="cls-2" d="M66.07,20.57c.44.73.82,1.5,1.21,2.26a.34.34,0,0,0,.61-.29c-.4-.78-.78-1.57-1.23-2.32a.34.34,0,1,0-.59.35"/><path class="cls-2" d="M68.51,24.81c.33.8.6,1.62.88,2.44"/><path class="cls-2" d="M68.19,24.93c.33.79.6,1.61.87,2.42a.34.34,0,0,0,.42.23.35.35,0,0,0,.23-.43c-.28-.83-.55-1.66-.88-2.47a.33.33,0,0,0-.44-.19.35.35,0,0,0-.2.44"/><path class="cls-2" d="M70,29.49c.21.84.36,1.69.51,2.54"/><path class="cls-2" d="M69.66,29.57c.21.83.35,1.67.5,2.52a.34.34,0,0,0,.39.28.33.33,0,0,0,.28-.39c-.15-.86-.29-1.72-.51-2.57a.32.32,0,0,0-.41-.25.34.34,0,0,0-.25.41"/><path class="cls-2" d="M70.77,34.33c.08.87.11,1.73.13,2.6"/><path class="cls-2" d="M70.43,34.36c.08.86.11,1.71.13,2.57a.34.34,0,1,0,.68,0c0-.87,0-1.74-.13-2.62a.34.34,0,0,0-.37-.3.34.34,0,0,0-.31.36"/><path class="cls-3" d="M55.36,24.16c5.71,0,10.33,5.79,10.33,12.94S61.07,50,55.36,50l-.6,0"/><path class="cls-3" d="M19.35,24.16C13.65,24.16,9,30,9,37.1S13.65,50,19.35,50L20,50"/><path class="cls-2" d="M56.44,48.57a3,3,0,0,1-.86,2.1,2.91,2.91,0,0,1-2.09.87l-16.13,1-16.14-1a3,3,0,0,1-2.95-3V25.62a3,3,0,0,1,2.95-3l16.14-1,16.13,1a2.91,2.91,0,0,1,2.09.87,3,3,0,0,1,.86,2.09v23Z"/><line class="cls-1" x1="20.26" y1="24.2" x2="20.26" y2="50"/><line class="cls-1" x1="20.26" y1="25.84" x2="20.26" y2="27.99"/><path class="cls-1" d="M20,25.84V28a.28.28,0,0,0,.3.28.29.29,0,0,0,.3-.28V25.84a.29.29,0,0,0-.3-.28.28.28,0,0,0-.3.28"/><line class="cls-1" x1="20.26" y1="29.91" x2="20.26" y2="32.07"/><path class="cls-1" d="M20,29.91v2.16a.29.29,0,0,0,.3.28.3.3,0,0,0,.3-.28V29.91a.3.3,0,0,0-.3-.28.29.29,0,0,0-.3.28"/><line class="cls-1" x1="20.26" y1="33.99" x2="20.26" y2="36.14"/><path class="cls-1" d="M20,34v2.15a.29.29,0,0,0,.3.28.3.3,0,0,0,.3-.28V34a.3.3,0,0,0-.3-.29A.29.29,0,0,0,20,34"/><line class="cls-1" x1="20.26" y1="38.06" x2="20.26" y2="40.21"/><path class="cls-1" d="M20,38.06v2.15a.28.28,0,0,0,.3.28.29.29,0,0,0,.3-.28V38.06a.29.29,0,0,0-.3-.28.28.28,0,0,0-.3.28"/><line class="cls-1" x1="20.26" y1="42.13" x2="20.26" y2="44.28"/><path class="cls-1" d="M20,42.13v2.15a.29.29,0,0,0,.3.29.3.3,0,0,0,.3-.29V42.13a.3.3,0,0,0-.3-.28.29.29,0,0,0-.3.28"/><line class="cls-1" x1="20.26" y1="46.2" x2="20.26" y2="48.36"/><path class="cls-1" d="M20,46.2v2.16a.29.29,0,0,0,.3.28.3.3,0,0,0,.3-.28V46.2a.3.3,0,0,0-.3-.28.29.29,0,0,0-.3.28"/><line class="cls-1" x1="54.46" y1="24.2" x2="54.46" y2="50"/><line class="cls-1" x1="54.46" y1="25.84" x2="54.46" y2="27.99"/><path class="cls-1" d="M54.16,25.84V28a.3.3,0,0,0,.59,0V25.84a.3.3,0,0,0-.59,0"/><line class="cls-1" x1="54.46" y1="29.91" x2="54.46" y2="32.07"/><path class="cls-1" d="M54.16,29.91v2.16a.3.3,0,0,0,.59,0V29.91a.3.3,0,0,0-.59,0"/><line class="cls-1" x1="54.46" y1="33.99" x2="54.46" y2="36.14"/><path class="cls-1" d="M54.16,34v2.15a.3.3,0,0,0,.59,0V34a.3.3,0,0,0-.59,0"/><line class="cls-1" x1="54.46" y1="38.06" x2="54.46" y2="40.21"/><path class="cls-1" d="M54.16,38.06v2.15a.3.3,0,0,0,.59,0V38.06a.3.3,0,0,0-.59,0"/><line class="cls-1" x1="54.46" y1="42.13" x2="54.46" y2="44.28"/><path class="cls-1" d="M54.16,42.13v2.15a.3.3,0,0,0,.59,0V42.13a.3.3,0,0,0-.59,0"/><line class="cls-1" x1="54.46" y1="46.2" x2="54.46" y2="48.36"/><path class="cls-1" d="M54.16,46.2v2.16a.3.3,0,0,0,.59,0V46.2a.3.3,0,0,0-.59,0"/><polygon class="cls-1" points="51.71 33.41 37.19 35.49 22.66 33.41 51.71 33.41"/><polygon class="cls-1" points="51.71 39.08 37.19 41.16 22.66 39.08 51.71 39.08"/><polygon class="cls-1" points="51.71 44.75 37.19 46.83 22.66 44.75 51.71 44.75"/><text class="cls-4" transform="translate(80.45 45.92)">青森県</text></g></g></svg>