<svg xmlns="http://www.w3.org/2000/svg" viewBox="0 0 79.84 28.06"><defs><style>.cls-1{fill:#3494bb;}.cls-2{fill:#fff;}.cls-3{fill:none;stroke:#fff;stroke-linecap:round;stroke-linejoin:round;stroke-width:1.5px;}.cls-4{font-size:14.77px;fill:#504444;font-family:KozGoPr6N-Medium-83pv-RKSJ-H, Kozuka Gothic Pr6N;letter-spacing:0.1em;}</style></defs><g id="レイヤー_2" data-name="レイヤー 2"><g id="レイヤー_1-2" data-name="レイヤー 1"><circle class="cls-1" cx="14.03" cy="14.03" r="14.03" transform="translate(-0.53 0.55) rotate(-2.2)"/><path class="cls-2" d="M26.67,14.77c0,.33-.05.65-.1,1"/><path class="cls-2" d="M26.54,14.76c0,.33-.05.65-.1,1a.12.12,0,0,0,.11.14.13.13,0,0,0,.15-.11c.05-.32.07-.65.09-1a.13.13,0,0,0-.12-.14.12.12,0,0,0-.13.12"/><path class="cls-2" d="M26.43,16.6c-.08.32-.15.64-.24.95"/><path class="cls-2" d="M26.3,16.58c-.07.31-.14.63-.23.94a.14.14,0,0,0,.08.16.13.13,0,0,0,.16-.09c.1-.32.17-.64.24-1a.12.12,0,0,0-.1-.15.13.13,0,0,0-.15.1"/><path class="cls-2" d="M25.92,18.38c-.12.3-.23.61-.37.9"/><path class="cls-2" d="M25.8,18.34c-.12.3-.23.6-.37.89a.13.13,0,0,0,.06.17.13.13,0,0,0,.17-.06c.14-.3.26-.61.38-.91a.13.13,0,0,0-.08-.17.12.12,0,0,0-.16.08"/><path class="cls-2" d="M25.16,20.07c-.16.28-.32.56-.5.83"/><path class="cls-2" d="M25.05,20c-.16.28-.32.57-.5.83a.13.13,0,0,0,0,.18.12.12,0,0,0,.17,0c.19-.27.35-.56.51-.84a.13.13,0,0,0-.05-.18.13.13,0,0,0-.17.05"/><path class="cls-2" d="M24.16,21.62c-.2.26-.4.52-.62.76"/><path class="cls-2" d="M24.06,21.54c-.2.26-.4.51-.62.75a.13.13,0,0,0,0,.18.12.12,0,0,0,.18,0c.22-.24.42-.5.62-.76a.12.12,0,0,0,0-.18.12.12,0,0,0-.17,0"/><path class="cls-2" d="M23,23c-.24.23-.48.45-.73.66"/><path class="cls-2" d="M22.85,22.92c-.23.23-.46.45-.71.66a.13.13,0,0,0,.17.19c.25-.21.49-.44.73-.67a.14.14,0,0,0,0-.18.15.15,0,0,0-.19,0"/><path class="cls-2" d="M21.54,24.22c-.26.19-.53.37-.81.55"/><path class="cls-2" d="M21.47,24.11c-.27.19-.53.38-.81.55a.12.12,0,0,0,0,.17.12.12,0,0,0,.17,0c.28-.17.55-.36.82-.55a.13.13,0,0,0-.15-.21"/><path class="cls-2" d="M20,25.2c-.29.15-.58.3-.88.43"/><path class="cls-2" d="M19.92,25.09l-.87.42a.13.13,0,0,0,.1.24c.3-.13.6-.28.89-.43a.13.13,0,0,0,.05-.18.13.13,0,0,0-.17-.05"/><path class="cls-2" d="M18.29,26c-.31.11-.62.21-.93.29"/><path class="cls-2" d="M18.25,25.83c-.31.11-.62.21-.93.29a.15.15,0,0,0-.09.16.13.13,0,0,0,.16.09c.32-.09.63-.19.94-.3a.12.12,0,0,0,.08-.16.13.13,0,0,0-.16-.08"/><path class="cls-2" d="M16.51,26.44c-.32.06-.64.12-1,.15"/><path class="cls-2" d="M16.48,26.32c-.31.06-.63.11-1,.15a.12.12,0,0,0-.11.14.12.12,0,0,0,.14.11c.32,0,.65-.09,1-.15a.12.12,0,0,0,.1-.15.13.13,0,0,0-.15-.1"/><path class="cls-2" d="M14.67,26.67c-.32,0-.65,0-1,0"/><path class="cls-2" d="M14.67,26.54c-.33,0-.65,0-1,0a.12.12,0,0,0-.13.12.13.13,0,0,0,.12.14c.33,0,.66,0,1,0a.13.13,0,0,0,.12-.14.12.12,0,0,0-.13-.12"/><path class="cls-2" d="M12.83,26.63c-.33,0-.65-.07-1-.13"/><path class="cls-2" d="M12.84,26.5c-.32,0-.64-.07-1-.13a.13.13,0,0,0-.15.1.13.13,0,0,0,.11.15c.32.07.65.1,1,.14a.13.13,0,0,0,.14-.12.12.12,0,0,0-.11-.14"/><path class="cls-2" d="M11,26.32c-.31-.08-.63-.16-.94-.27"/><path class="cls-2" d="M11,26.19c-.31-.07-.62-.16-.93-.26a.12.12,0,0,0-.16.08.13.13,0,0,0,.08.16c.32.11.63.19,1,.27a.13.13,0,0,0,.16-.09.14.14,0,0,0-.1-.16"/><path class="cls-2" d="M9.25,25.75c-.3-.13-.6-.26-.89-.41"/><path class="cls-2" d="M9.3,25.63c-.3-.12-.6-.25-.89-.4a.13.13,0,0,0-.17.05.14.14,0,0,0,.06.18c.29.15.59.28.9.41a.14.14,0,0,0,.17-.08.13.13,0,0,0-.07-.16"/><path class="cls-2" d="M7.59,24.93a8.92,8.92,0,0,1-.82-.54"/><path class="cls-2" d="M7.66,24.82c-.28-.17-.55-.34-.82-.53a.12.12,0,0,0-.17,0,.13.13,0,0,0,0,.18,9.87,9.87,0,0,0,.83.54A.13.13,0,0,0,7.7,25a.12.12,0,0,0,0-.17"/><path class="cls-2" d="M6.07,23.87c-.25-.21-.5-.41-.73-.64"/><path class="cls-2" d="M6.16,23.77a8.8,8.8,0,0,1-.73-.64.14.14,0,0,0-.18,0,.13.13,0,0,0,0,.18c.24.23.49.44.74.65a.12.12,0,0,0,.18,0,.13.13,0,0,0,0-.18"/><path class="cls-2" d="M4.73,22.61c-.22-.25-.44-.49-.64-.75"/><path class="cls-2" d="M4.82,22.52c-.21-.24-.43-.48-.63-.74a.14.14,0,0,0-.18,0,.14.14,0,0,0,0,.18c.2.26.42.51.64.75a.13.13,0,1,0,.19-.17"/><path class="cls-2" d="M3.57,21.16c-.17-.27-.36-.54-.51-.83"/><path class="cls-2" d="M3.68,21.09c-.18-.27-.36-.54-.51-.82a.13.13,0,1,0-.23.13c.16.29.35.56.53.83a.13.13,0,0,0,.18,0,.13.13,0,0,0,0-.18"/><path class="cls-2" d="M2.65,19.56c-.14-.29-.28-.59-.4-.89"/><path class="cls-2" d="M2.76,19.51c-.13-.29-.27-.59-.39-.89a.12.12,0,0,0-.16-.07.14.14,0,0,0-.08.17c.12.3.26.6.4.9a.13.13,0,0,0,.17.06.12.12,0,0,0,.06-.17"/><path class="cls-2" d="M2,17.85c-.09-.31-.19-.63-.26-1"/><path class="cls-2" d="M2.08,17.81c-.09-.31-.18-.62-.25-.93a.14.14,0,0,0-.15-.1.12.12,0,0,0-.1.15c.07.33.17.64.26,1A.13.13,0,0,0,2,18a.12.12,0,0,0,.08-.16"/><path class="cls-2" d="M1.53,16.05c0-.32-.09-.65-.11-1"/><path class="cls-2" d="M1.66,16c0-.32-.09-.64-.11-1A.14.14,0,0,0,1.41,15a.14.14,0,0,0-.12.14c0,.33.07.65.12,1a.13.13,0,0,0,.15.11.13.13,0,0,0,.1-.15"/><path class="cls-2" d="M1.38,14.21c0-.33,0-.65,0-1"/><path class="cls-2" d="M1.51,14.21c0-.33,0-.65,0-1a.14.14,0,0,0-.12-.14.14.14,0,0,0-.14.12c0,.33,0,.66,0,1a.13.13,0,0,0,.13.13.14.14,0,0,0,.13-.13"/><path class="cls-2" d="M1.48,12.36c0-.32.11-.64.17-1"/><path class="cls-2" d="M1.61,12.38c0-.32.1-.64.16-1a.12.12,0,0,0-.09-.15.13.13,0,0,0-.16.09c-.06.33-.13.65-.16,1a.13.13,0,0,0,.25,0"/><path class="cls-2" d="M1.86,10.55c.08-.31.19-.62.3-.93"/><path class="cls-2" d="M2,10.59c.08-.31.19-.62.3-.92a.12.12,0,0,0-.07-.16A.12.12,0,0,0,2,9.58c-.11.31-.22.62-.3.94a.13.13,0,0,0,.08.16A.13.13,0,0,0,2,10.59"/><path class="cls-2" d="M2.49,8.82c.13-.3.29-.59.44-.88"/><path class="cls-2" d="M2.61,8.87c.13-.29.28-.58.43-.86a.13.13,0,0,0,0-.18.13.13,0,0,0-.17,0,9.2,9.2,0,0,0-.44.89.13.13,0,1,0,.23.1"/><path class="cls-2" d="M3.38,7.2c.17-.28.36-.54.55-.81"/><path class="cls-2" d="M3.48,7.27c.17-.28.37-.54.56-.8a.13.13,0,1,0-.21-.15c-.19.26-.39.53-.56.81a.12.12,0,0,0,0,.17.12.12,0,0,0,.17,0"/><path class="cls-2" d="M4.49,5.72c.21-.25.44-.48.66-.71"/><path class="cls-2" d="M4.58,5.8c.21-.24.44-.47.66-.7a.12.12,0,0,0,0-.18.14.14,0,0,0-.19,0c-.23.24-.46.47-.67.72a.13.13,0,0,0,0,.18.12.12,0,0,0,.18,0"/><path class="cls-2" d="M5.8,4.42a8.82,8.82,0,0,1,.76-.61"/><path class="cls-2" d="M5.88,4.51c.24-.21.5-.4.76-.6a.13.13,0,0,0,0-.18.13.13,0,0,0-.18,0,9.1,9.1,0,0,0-.78.61.13.13,0,1,0,.17.19"/><path class="cls-2" d="M7.28,3.32c.28-.18.56-.34.85-.49"/><path class="cls-2" d="M7.35,3.43c.27-.18.56-.34.84-.49a.13.13,0,1,0-.12-.22,8.92,8.92,0,0,0-.85.49.13.13,0,0,0,0,.18.12.12,0,0,0,.17,0"/><path class="cls-2" d="M8.91,2.45c.3-.14.61-.25.91-.36"/><path class="cls-2" d="M9,2.57a8.88,8.88,0,0,1,.9-.36.12.12,0,0,0,.07-.16A.12.12,0,0,0,9.78,2c-.31.11-.62.23-.92.36a.13.13,0,0,0-.06.17A.12.12,0,0,0,9,2.57"/><path class="cls-2" d="M10.65,1.83c.32-.09.64-.16,1-.23"/><path class="cls-2" d="M10.69,2c.31-.09.62-.16.94-.22a.13.13,0,0,0-.05-.25c-.32.06-.64.13-1,.22a.13.13,0,1,0,.07.25"/><path class="cls-2" d="M12.47,1.47c.32-.05.65-.06,1-.09"/><path class="cls-2" d="M12.48,1.6c.32-.05.65-.07,1-.09a.12.12,0,0,0,.12-.13.12.12,0,0,0-.13-.12c-.33,0-.66,0-1,.08a.12.12,0,0,0-.11.14.13.13,0,0,0,.14.12"/><path class="cls-2" d="M14.31,1.38c.33,0,.65,0,1,.05"/><path class="cls-2" d="M14.31,1.5l1,.06a.13.13,0,0,0,.14-.11.15.15,0,0,0-.12-.15c-.33,0-.66-.05-1-.05a.13.13,0,0,0-.14.12.13.13,0,0,0,.13.13"/><path class="cls-2" d="M16.15,1.55c.32.05.64.12,1,.2"/><path class="cls-2" d="M16.13,1.68c.32.05.63.12.95.19a.11.11,0,0,0,.15-.09.13.13,0,0,0-.09-.16l-1-.2a.12.12,0,0,0-.14.11.13.13,0,0,0,.1.15"/><path class="cls-2" d="M18,2c.31.1.61.21.91.34"/><path class="cls-2" d="M17.91,2.11c.3.1.61.21.91.34A.13.13,0,0,0,19,2.38a.12.12,0,0,0-.07-.17c-.3-.13-.61-.24-.92-.34a.12.12,0,0,0-.16.08.12.12,0,0,0,.08.16"/><path class="cls-2" d="M19.66,2.69c.29.14.58.3.86.47"/><path class="cls-2" d="M19.6,2.8c.29.15.57.3.85.47a.14.14,0,0,0,.18,0,.13.13,0,0,0-.05-.17q-.42-.25-.87-.48a.13.13,0,0,0-.11.23"/><path class="cls-2" d="M21.25,3.63c.27.18.52.38.78.59"/><path class="cls-2" d="M21.17,3.74c.27.18.53.38.78.58a.14.14,0,0,0,.18,0,.13.13,0,0,0,0-.18c-.26-.21-.52-.41-.79-.6a.13.13,0,0,0-.18,0,.14.14,0,0,0,0,.18"/><path class="cls-2" d="M22.68,4.79c.24.22.47.46.69.7"/><path class="cls-2" d="M22.6,4.89c.23.21.46.45.68.68a.13.13,0,1,0,.19-.17c-.23-.24-.46-.48-.7-.7a.13.13,0,0,0-.18,0,.14.14,0,0,0,0,.19"/><path class="cls-2" d="M23.94,6.15c.2.25.39.52.58.79"/><path class="cls-2" d="M23.84,6.23c.2.25.39.52.57.78a.13.13,0,0,0,.21-.15c-.19-.26-.37-.53-.58-.79a.13.13,0,0,0-.18,0,.12.12,0,0,0,0,.18"/><path class="cls-2" d="M25,7.68c.17.28.31.57.46.86"/><path class="cls-2" d="M24.87,7.74c.16.28.31.57.46.85a.11.11,0,0,0,.16.06.12.12,0,0,0,.07-.17c-.15-.29-.3-.59-.47-.87a.12.12,0,0,0-.17,0,.11.11,0,0,0-.05.17"/><path class="cls-2" d="M25.79,9.34c.12.3.22.61.33.92"/><path class="cls-2" d="M25.67,9.39c.12.29.22.6.33.91a.12.12,0,0,0,.15.08.13.13,0,0,0,.09-.16c-.1-.31-.21-.63-.33-.93a.12.12,0,0,0-.17-.07.13.13,0,0,0-.07.17"/><path class="cls-2" d="M26.35,11.1c.08.32.13.64.19,1"/><path class="cls-2" d="M26.22,11.13c.08.31.13.63.19.95a.13.13,0,0,0,.25,0c-.05-.33-.11-.65-.19-1a.12.12,0,0,0-.15-.09.12.12,0,0,0-.1.15"/><path class="cls-2" d="M26.64,12.92c0,.33,0,.65.05,1"/><path class="cls-2" d="M26.51,12.93c0,.33,0,.65,0,1a.13.13,0,0,0,.13.13.12.12,0,0,0,.12-.13c0-.33,0-.66,0-1a.12.12,0,0,0-.14-.11.13.13,0,0,0-.12.13"/><path class="cls-3" d="M20.84,9.09c2.15,0,3.89,2.18,3.89,4.87S23,18.83,20.84,18.83h-.23"/><path class="cls-3" d="M7.28,9.09C5.14,9.09,3.4,11.27,3.4,14s1.74,4.87,3.88,4.87h.23"/><path class="cls-2" d="M21.25,18.28a1.12,1.12,0,0,1-.33.79,1.07,1.07,0,0,1-.78.33l-6.08.38L8,19.4a1.08,1.08,0,0,1-.79-.33,1.11,1.11,0,0,1-.32-.79V9.64a1.1,1.1,0,0,1,.32-.78A1.08,1.08,0,0,1,8,8.53l6.07-.38,6.08.38a1.07,1.07,0,0,1,.78.33,1.11,1.11,0,0,1,.33.78v8.64Z"/><line class="cls-1" x1="7.63" y1="9.11" x2="7.63" y2="18.82"/><line class="cls-1" x1="7.63" y1="9.73" x2="7.63" y2="10.54"/><path class="cls-1" d="M7.51,9.73v.81c0,.06,0,.1.12.1a.1.1,0,0,0,.11-.1V9.73a.11.11,0,0,0-.11-.11.11.11,0,0,0-.12.11"/><line class="cls-1" x1="7.63" y1="11.26" x2="7.63" y2="12.07"/><path class="cls-1" d="M7.51,11.26v.81a.11.11,0,0,0,.12.11.11.11,0,0,0,.11-.11v-.81a.11.11,0,0,0-.11-.11.11.11,0,0,0-.12.11"/><line class="cls-1" x1="7.63" y1="12.79" x2="7.63" y2="13.6"/><path class="cls-1" d="M7.51,12.79v.81a.11.11,0,0,0,.12.11.11.11,0,0,0,.11-.11v-.81a.1.1,0,0,0-.11-.1c-.07,0-.12,0-.12.1"/><line class="cls-1" x1="7.63" y1="14.33" x2="7.63" y2="15.14"/><path class="cls-1" d="M7.51,14.33v.81a.11.11,0,0,0,.12.1.11.11,0,0,0,.11-.1v-.81a.11.11,0,0,0-.11-.11.11.11,0,0,0-.12.11"/><line class="cls-1" x1="7.63" y1="15.86" x2="7.63" y2="16.67"/><path class="cls-1" d="M7.51,15.86v.81a.11.11,0,0,0,.12.11.11.11,0,0,0,.11-.11v-.81a.11.11,0,0,0-.11-.11.11.11,0,0,0-.12.11"/><line class="cls-1" x1="7.63" y1="17.39" x2="7.63" y2="18.2"/><path class="cls-1" d="M7.51,17.39v.81a.11.11,0,0,0,.12.11.11.11,0,0,0,.11-.11v-.81a.1.1,0,0,0-.11-.1c-.07,0-.12,0-.12.1"/><line class="cls-1" x1="20.5" y1="9.11" x2="20.5" y2="18.82"/><line class="cls-1" x1="20.5" y1="9.73" x2="20.5" y2="10.54"/><path class="cls-1" d="M20.39,9.73v.81a.11.11,0,0,0,.22,0V9.73a.11.11,0,0,0-.22,0"/><line class="cls-1" x1="20.5" y1="11.26" x2="20.5" y2="12.07"/><path class="cls-1" d="M20.39,11.26v.81a.11.11,0,0,0,.22,0v-.81a.11.11,0,1,0-.22,0"/><line class="cls-1" x1="20.5" y1="12.79" x2="20.5" y2="13.6"/><path class="cls-1" d="M20.39,12.79v.81a.11.11,0,0,0,.22,0v-.81a.11.11,0,0,0-.22,0"/><line class="cls-1" x1="20.5" y1="14.33" x2="20.5" y2="15.14"/><path class="cls-1" d="M20.39,14.33v.81a.11.11,0,0,0,.22,0v-.81a.11.11,0,1,0-.22,0"/><line class="cls-1" x1="20.5" y1="15.86" x2="20.5" y2="16.67"/><path class="cls-1" d="M20.39,15.86v.81a.11.11,0,0,0,.22,0v-.81a.11.11,0,0,0-.22,0"/><line class="cls-1" x1="20.5" y1="17.39" x2="20.5" y2="18.2"/><path class="cls-1" d="M20.39,17.39v.81a.11.11,0,1,0,.22,0v-.81a.11.11,0,0,0-.22,0"/><polygon class="cls-1" points="19.46 12.58 14 13.36 8.53 12.58 19.46 12.58"/><polygon class="cls-1" points="19.46 14.71 14 15.49 8.53 14.71 19.46 14.71"/><polygon class="cls-1" points="19.46 16.84 14 17.63 8.53 16.84 19.46 16.84"/><text class="cls-4" transform="translate(31.09 18.68)">青森県</text></g></g></svg>